<svg xmlns="http://www.w3.org/2000/svg" width="113.773" height="75.7" viewBox="0 0 113.773 75.7"><g transform="translate(-222.132 -181.654)"><g transform="translate(222.132 181.654)"><path d="M539.693,360.428h-4.964a3.322,3.322,0,0,0-.72-1.729,3.733,3.733,0,0,0-2.688-.8,4.012,4.012,0,0,0-2.566.616,1.592,1.592,0,0,0-.549,1.267c0,.752,1.045,1.352,3.115,1.814a49.356,49.356,0,0,1,5.1,1.317c.274.1.513.189.685.274a4.8,4.8,0,0,1,3.15,4.521,5.727,5.727,0,0,1-3.065,5.392c-.257.138-.5.257-.771.377a11.594,11.594,0,0,1-4.587.855,12.587,12.587,0,0,1-6.266-1.37,5.915,5.915,0,0,1-2.248-2.2,6.176,6.176,0,0,1-.748-3.093h5.2a2.461,2.461,0,0,0,.959,2.071,5.343,5.343,0,0,0,3.235.754,3.9,3.9,0,0,0,2.569-.72,1.6,1.6,0,0,0,.65-1.267c0-.8-1.025-1.437-3.065-1.882a33.373,33.373,0,0,1-5.751-1.559,4.771,4.771,0,0,1-3.115-4.571,5.975,5.975,0,0,1,1.626-4.261c1.37-1.455,3.423-2.175,6.146-2.175a12.845,12.845,0,0,1,5.392.959,1.867,1.867,0,0,1,.326.172,5.421,5.421,0,0,1,2.2,2.106A6.274,6.274,0,0,1,539.693,360.428Z" transform="translate(-426.485 -298.92)"/><path d="M563.725,334.11a.406.406,0,0,0-.069-.257.369.369,0,0,0-.221-.17,2.5,2.5,0,0,0-.327-.053h-.786v.959h.786a.73.73,0,0,0,.462-.136A.433.433,0,0,0,563.725,334.11Zm.412-.515a.752.752,0,0,1,.154.462.834.834,0,0,1-.257.616.989.989,0,0,1-.667.292.863.863,0,0,1,.273.17l.478.635.377.632h-.617l-.292-.513a2.9,2.9,0,0,0-.478-.685.223.223,0,0,0-.069-.051l-.409-.119h-.309V336.4h-.515v-3.217h1.112c.069,0,.138.016.189.016a1.851,1.851,0,0,1,.617.086A.746.746,0,0,1,564.136,333.6Z" transform="translate(-453.171 -284.722)"/><path d="M562.062,331.74a2.485,2.485,0,0,0-.326-1.251,2.413,2.413,0,0,0-.925-.925,2.647,2.647,0,0,0-1.217-.325h-.016a2.637,2.637,0,0,0-1.214.325,2.4,2.4,0,0,0-.926.925,2.429,2.429,0,0,0,0,2.483,2.317,2.317,0,0,0,.907.906,2.454,2.454,0,0,0,1.233.327h.016a2.466,2.466,0,0,0,1.235-.327,2.3,2.3,0,0,0,.906-.906A2.47,2.47,0,0,0,562.062,331.74Zm.5,0a2.928,2.928,0,0,1-.4,1.472,2.592,2.592,0,0,1-1.094,1.094,2.868,2.868,0,0,1-1.474.4h-.016a2.858,2.858,0,0,1-1.471-.4,2.591,2.591,0,0,1-1.1-1.094,2.922,2.922,0,0,1-.393-1.472,2.963,2.963,0,0,1,.393-1.508,2.753,2.753,0,0,1,1.113-1.1,3.237,3.237,0,0,1,1.455-.393h.016a3.042,3.042,0,0,1,1.456.393,2.635,2.635,0,0,1,1.113,1.1A2.969,2.969,0,0,1,562.558,331.74Z" transform="translate(-449.64 -281.701)"/><path d="M415.843,207.5,429.9,230.923h-22.58L393.9,208.548,383.73,191.617l10.168-6.112,6.4-3.851Z" transform="translate(-332.047 -181.654)"/><path d="M472.826,364.924v9.6h-4.674v-1.062a10,10,0,0,1-5.478,1.627h-.052a10.169,10.169,0,0,1,0-20.338h.052a10.019,10.019,0,0,1,5.478,1.625v-1.113h4.674Zm-4.674,1.062v-2.123a5.6,5.6,0,0,0-5.478-4.52h-.052a5.59,5.59,0,0,0,0,11.179h.052A5.614,5.614,0,0,0,468.152,365.986Z" transform="translate(-378.825 -299.394)"/><path d="M404.208,351.964v9.6h-4.673v-1.062a10.043,10.043,0,0,1-5.479,1.627h-.051a10.169,10.169,0,0,1,0-20.338h.051a10.062,10.062,0,0,1,5.479,1.625V335.7h4.673Zm-4.673,1.062V350.9a5.6,5.6,0,0,0-5.479-4.52h-.051a5.59,5.59,0,0,0,0,11.18h.051A5.616,5.616,0,0,0,399.536,353.027Z" transform="translate(-332.155 -286.434)"/><path d="M351.447,258.988l5.512,9.212H334.4l-12.53-20.851-.547-.908.547-.324,16.04-9.657Z" transform="translate(-289.596 -218.931)"/><rect width="5.084" height="19.773" transform="translate(44.817 55.362)"/><rect width="5.084" height="4.468" transform="translate(44.817 49.37)"/><path d="M311.731,351.964v9.6h-4.672v-1.062a10.094,10.094,0,0,1-5.5,1.627h-.051a10.169,10.169,0,0,1,0-20.338h.051a10.114,10.114,0,0,1,5.5,1.625V335.7h4.672Zm-4.672,1.062V350.9a5.605,5.605,0,0,0-5.5-4.52h-.051a5.59,5.59,0,0,0,0,11.18h.051A5.619,5.619,0,0,0,307.059,353.027Z" transform="translate(-269.243 -286.434)"/><path d="M279.449,297.816l4.622,7.705h-22.58l-2.534-4.229,16.588-9.963Z" transform="translate(-247.179 -256.252)"/><path d="M242.452,364.924v9.6h-4.672v-1.062a10.1,10.1,0,0,1-5.5,1.627h-.053a10.169,10.169,0,0,1,0-20.338h.053a10.125,10.125,0,0,1,5.5,1.625v-1.113h4.672Zm-4.672,1.062v-2.123a5.605,5.605,0,0,0-5.5-4.52h-.053a5.59,5.59,0,0,0,0,11.179h.053A5.619,5.619,0,0,0,237.779,365.986Z" transform="translate(-222.132 -299.394)"/></g></g></svg>