<svg xmlns="http://www.w3.org/2000/svg" xmlns:xlink="http://www.w3.org/1999/xlink" width="191.334" height="82.613" viewBox="0 0 191.334 82.613"><defs><style>.a{fill:url(#a);}.b{fill:#fff;}</style><linearGradient id="a" y1="0.5" x2="1" y2="0.5" gradientUnits="objectBoundingBox"><stop offset="0" stop-color="#006eb7"/><stop offset="1" stop-color="#40bfef"/></linearGradient></defs><g transform="translate(-823.612 -1035.449)"><path class="a" d="M889.264,1090.331l-23.551-23.551a19.285,19.285,0,0,0,3.766-16.079,19.73,19.73,0,0,0-10.845-13.624c-4.508-2.2-11.84-2.166-16.345.076a19.446,19.446,0,0,0-5.45,31.289l30.231,30.231a1.077,1.077,0,0,0,.762.311h0a1.068,1.068,0,0,0,.756-.309l1.621-1.62a1.072,1.072,0,0,0,0-1.515l-30.552-30.552a14.16,14.16,0,0,1-3.23-15.409,15.291,15.291,0,0,1,11.159-9.475,14.932,14.932,0,0,1,14.965,23.514l-11.206-11.206a1,1,0,0,0-.806-.334,1.128,1.128,0,0,0-.8.333l-6.742,6.742a1.07,1.07,0,0,0,0,1.508l1.629,1.629a1.072,1.072,0,0,0,1.508,0l4.407-4.408,33.257,33.257-21.126,21.126L829.413,1079l2.929-2.929,22.6,22.6a1.076,1.076,0,0,0,1.515,0l1.619-1.619a1.073,1.073,0,0,0,0-1.517l-24.933-24.932a1.139,1.139,0,0,0-1.609,0l-7.593,7.593a1.14,1.14,0,0,0,0,1.609l37.922,37.922a1.138,1.138,0,0,0,1.607,0l25.79-25.79a1.139,1.139,0,0,0,0-1.609Z"/><g transform="translate(897.349 1036.946)"><path class="b" d="M953.319,1057.366a13.131,13.131,0,0,0,4.219-8.008,9.972,9.972,0,0,0-1.79-7.973c-1.675-2.12-4.33-3.2-7.889-3.2h-9.993l-.416,2.76h2.774l-2.536,16.815h-2.774l-.416,2.759h10.058A12.639,12.639,0,0,0,953.319,1057.366ZM943.21,1040.95h4.2c2.691,0,4.644.783,5.8,2.326a7.84,7.84,0,0,1,1.2,6.082,10.215,10.215,0,0,1-3.042,6.112,9.158,9.158,0,0,1-6.5,2.3h-4.2Z" transform="translate(-934.497 -1037.864)"/><path class="b" d="M966.462,1057.733l-.421,2.792h8.371l.421-2.792h-3.094l1.9-3.472h8.786l.781,3.472h-2.881l-.421,2.792h8.4l.421-2.792H986.4l-4.656-19.543h-6.66l-.421,2.793h3.221l-9.249,16.75Zm8.609-6.1,4.777-8.78,2,8.78Z" transform="translate(-945.065 -1037.864)"/><path class="b" d="M1004.5,1057.733h-2.513l-.421,2.792h8.926l.421-2.792h-3.491l2.073-13.75,9.343,16.541h2.127l2.946-19.542h2.74l.421-2.793h-8.894l-.421,2.793h3.23l-2.044,13.554-9.242-16.347h-5.1l-.421,2.793h2.839Z" transform="translate(-956.966 -1037.864)"/><path class="b" d="M1040.067,1054.021l-1.2,4.782.251.189a8.157,8.157,0,0,0,2.729,1.22,14.759,14.759,0,0,0,3.889.476,10.4,10.4,0,0,0,5.805-1.675,6.992,6.992,0,0,0,3.143-5.024,5.03,5.03,0,0,0-.669-3.924,5.731,5.731,0,0,0-2.657-1.879,28.08,28.08,0,0,0-2.948-.878,16.651,16.651,0,0,1-3.171-1.141c-.784-.382-1.077-1.152-.9-2.357a3.389,3.389,0,0,1,1.466-2.423c1.27-.872,3.088-1.067,5.281-.737a5.751,5.751,0,0,1,1.632.5l-.158,3.607,2.666-.28.506-4.916-.2-.16a7.528,7.528,0,0,0-2.775-1.246,14.05,14.05,0,0,0-3.526-.457,9.021,9.021,0,0,0-5.175,1.55,6.646,6.646,0,0,0-2.828,4.723,4.616,4.616,0,0,0,.578,3.508,5.088,5.088,0,0,0,2.387,1.74,23.405,23.405,0,0,0,2.854.849,16.758,16.758,0,0,1,3.491,1.219c.9.438,1.224,1.375,1,2.864a3.618,3.618,0,0,1-1.773,2.831,7.38,7.38,0,0,1-3.675.911,12.894,12.894,0,0,1-2.348-.2,6.151,6.151,0,0,1-1.654-.552l.567-2.839Z" transform="translate(-969.462 -1037.7)"/><path class="b" d="M1073.678,1057.717h-2.61l1.084-7.191h2.9l4.16,7.191h-2.1l-.421,2.792h8.339l.421-2.792h-2.691l-5.052-8.764,7.155-8.019h2.727l.421-2.793h-8.241l-.421,2.793h2.122l-6.071,6.832h-2.837l1.025-6.8h2.642l.421-2.793h-8.437l-.421,2.793h2.773l-2.526,16.751h-2.773l-.421,2.792h8.4Z" transform="translate(-978.169 -1037.848)"/></g><g transform="translate(897.348 1065.022)"><path class="b" d="M953.384,1099.953l-.421,2.792h8.4l.421-2.792h-2.773l2.525-16.75h2.838l.421-2.793h-5.423l-10.549,16.911-5.607-16.911H937.8l-.421,2.793h2.839l-2.525,16.75h-2.773l-.421,2.792h8.371l.421-2.792h-2.675l1.842-12.216,4.688,14.1H949l8.866-14.05-1.835,12.171Z" transform="translate(-934.497 -1080.085)"/><path class="b" d="M984.052,1101.337a9.554,9.554,0,0,0,5.559,1.571,12.151,12.151,0,0,0,6.064-1.568,13.752,13.752,0,0,0,6.837-9.926,11.2,11.2,0,0,0-.533-5.782,8.773,8.773,0,0,0-3.292-4.159,9.737,9.737,0,0,0-5.576-1.551,12.019,12.019,0,0,0-5.978,1.551,13.758,13.758,0,0,0-4.562,4.157,13.56,13.56,0,0,0-2.3,5.784,11.24,11.24,0,0,0,.521,5.747A8.8,8.8,0,0,0,984.052,1101.337Zm-.653-9.955a10.727,10.727,0,0,1,3.091-6.142,8.364,8.364,0,0,1,6.194-2.494,6.25,6.25,0,0,1,5.436,2.469,8.136,8.136,0,0,1,1.268,6.233,10.708,10.708,0,0,1-3.092,6.157,8.388,8.388,0,0,1-6.194,2.48,6.118,6.118,0,0,1-5.465-2.54A8.325,8.325,0,0,1,983.4,1091.382Z" transform="translate(-949.782 -1079.921)"/><path class="b" d="M1033.816,1083.2l-.061,4.769,2.837-.216.342-7.346H1018.59l-1.834,7.346,2.735.217,1.377-4.77h4.98l-2.525,16.75h-3.752l-.421,2.792h10.557l.421-2.792h-3.816l2.525-16.75Z" transform="translate(-962.055 -1080.085)"/><path class="b" d="M1051.512,1101.337a9.557,9.557,0,0,0,5.56,1.571,12.149,12.149,0,0,0,6.063-1.568,13.755,13.755,0,0,0,6.837-9.926,11.194,11.194,0,0,0-.533-5.782,8.776,8.776,0,0,0-3.292-4.159,9.739,9.739,0,0,0-5.577-1.551,12.018,12.018,0,0,0-5.978,1.551,13.752,13.752,0,0,0-4.562,4.157,13.577,13.577,0,0,0-2.3,5.784,11.254,11.254,0,0,0,.521,5.747A8.808,8.808,0,0,0,1051.512,1101.337Zm.586-3.794a8.328,8.328,0,0,1-1.24-6.161,10.732,10.732,0,0,1,3.092-6.142,8.363,8.363,0,0,1,6.194-2.494,6.248,6.248,0,0,1,5.436,2.469,8.137,8.137,0,0,1,1.269,6.233,10.712,10.712,0,0,1-3.092,6.157,8.389,8.389,0,0,1-6.194,2.48A6.118,6.118,0,0,1,1052.1,1097.543Z" transform="translate(-972.383 -1079.921)"/><path class="b" d="M1098.443,1099.953l-2.534-6.843a7.355,7.355,0,0,0,3.516-2.236,7.9,7.9,0,0,0,1.863-3.995,5.778,5.778,0,0,0-1.062-4.541c-.979-1.279-2.888-1.929-5.672-1.929h-9.6l-.421,2.793h2.773l-2.526,16.75h-2.773l-.421,2.792h8.795l.421-2.792h-3l.952-6.311h4.083l3.294,9.1h4.823l.421-2.792Zm-.25-13.008a4.627,4.627,0,0,1-1.5,2.945,5.709,5.709,0,0,1-3.79,1.058h-3.742l1.168-7.746h3.645a5.247,5.247,0,0,1,3.577.93A3.036,3.036,0,0,1,1098.193,1086.945Z" transform="translate(-983.775 -1080.085)"/></g><g transform="translate(897.348 1093.097)"><path class="b" d="M951.091,1125.423l-.031,4.593,2.882-.32.259-7.065H937.864l-.421,2.792h2.774l-2.526,16.751h-2.774l-.421,2.792h9.579l.421-2.792h-3.817l.942-6.245h8.8l.421-2.792h-8.8l1.163-7.713Z" transform="translate(-934.497 -1122.304)"/><path class="b" d="M965.7,1125.423h2.773l-2.526,16.751h-2.773l-.421,2.792h8.534l.421-2.792h-2.741l2.526-16.751h2.741l.421-2.792h-8.534Z" transform="translate(-943.965 -1122.304)"/><path class="b" d="M995.728,1125.423h3.23l-2.044,13.554-9.242-16.346h-5.1l-.421,2.792h2.838l-2.526,16.751h-2.512l-.421,2.792h8.926l.421-2.792h-3.491l2.073-13.75,9.343,16.541h2.127l2.946-19.542h2.741l.421-2.792h-8.894Z" transform="translate(-949.586 -1122.304)"/><path class="b" d="M1028.8,1122.63h-6.659l-.421,2.792h3.22l-9.25,16.751h-2.173l-.421,2.792h8.371l.421-2.792h-3.094l1.9-3.472h8.786l.782,3.472h-2.882l-.421,2.792h8.4l.421-2.792h-2.332Zm.1,13.442h-6.773l4.777-8.78Z" transform="translate(-960.828 -1122.304)"/><path class="b" d="M1064.811,1125.423h3.23L1066,1138.977l-9.243-16.346h-5.1l-.421,2.792h2.839l-2.526,16.751h-2.512l-.421,2.792h8.926l.421-2.792h-3.491l2.073-13.75,9.343,16.541h2.127l2.947-19.542h2.74l.421-2.792h-8.893Z" transform="translate(-972.73 -1122.304)"/><path class="b" d="M1098.407,1132.626a28.175,28.175,0,0,0-2.948-.878,16.633,16.633,0,0,1-3.171-1.141c-.785-.382-1.077-1.153-.9-2.357a3.387,3.387,0,0,1,1.466-2.423c1.269-.871,3.088-1.065,5.281-.738a5.8,5.8,0,0,1,1.632.5l-.158,3.607,2.665-.279.507-4.917-.2-.159a7.527,7.527,0,0,0-2.775-1.245,14.062,14.062,0,0,0-3.526-.457,9.014,9.014,0,0,0-5.175,1.55,6.646,6.646,0,0,0-2.828,4.723,4.613,4.613,0,0,0,.577,3.508,5.084,5.084,0,0,0,2.386,1.74,23.529,23.529,0,0,0,2.853.849,16.69,16.69,0,0,1,3.492,1.22c.9.438,1.225,1.373,1,2.863a3.622,3.622,0,0,1-1.774,2.832,7.386,7.386,0,0,1-3.675.91,12.854,12.854,0,0,1-2.349-.2,6.113,6.113,0,0,1-1.654-.551l.567-2.839-2.587-.279-1.2,4.782.251.189a8.176,8.176,0,0,0,2.729,1.22,14.77,14.77,0,0,0,3.889.475,10.4,10.4,0,0,0,5.8-1.674,6.991,6.991,0,0,0,3.144-5.024,5.035,5.035,0,0,0-.668-3.925A5.739,5.739,0,0,0,1098.407,1132.626Z" transform="translate(-985.226 -1122.14)"/></g></g></svg>