<svg xmlns="http://www.w3.org/2000/svg" xmlns:xlink="http://www.w3.org/1999/xlink" width="101.029" height="38.986" viewBox="0 0 101.029 38.986"><defs><style>.a{fill:#fff;}.b{fill:url(#a);}.c{fill:url(#c);}.d{fill:url(#e);}.e{fill:url(#g);}.f{fill:url(#h);}.g{fill:url(#i);}.h{fill:url(#j);}.i{fill:#afafae;}</style><linearGradient id="a" x1="0.5" y1="1.003" x2="0.5" y2="0.013" gradientUnits="objectBoundingBox"><stop offset="0" stop-color="#77838a"/><stop offset="1" stop-color="#b1bec5"/></linearGradient><linearGradient id="c" x1="0.5" y1="0.988" x2="0.5" y2="0.027" xlink:href="#a"/><linearGradient id="e" x1="0.5" y1="1.002" x2="0.5" y2="0.012" xlink:href="#a"/><linearGradient id="g" x1="0.5" y1="0.999" x2="0.5" y2="-0.007" gradientUnits="objectBoundingBox"><stop offset="0" stop-color="#dc0a20"/><stop offset="1" stop-color="#e23734"/></linearGradient><linearGradient id="h" x1="0.388" y1="1.745" x2="0.754" y2="-3.444" xlink:href="#g"/><linearGradient id="i" x1="0.5" y1="0.999" x2="0.5" y2="-0.003" gradientUnits="objectBoundingBox"><stop offset="0" stop-color="#005dac"/><stop offset="1" stop-color="#0099db"/></linearGradient><linearGradient id="j" x1="0.358" y1="1.563" x2="0.589" y2="-0.446" xlink:href="#i"/></defs><g transform="translate(-457.789 -369.667)"><g transform="translate(504.131 369.667)"><path class="a" d="M650.225,369.667H670.14a.4.4,0,0,1,.4.464l-.827,5.487a.4.4,0,0,1-.4.343H656.156a.053.053,0,0,0-.052.045l-.648,4.3a.053.053,0,0,0,.053.061h10.714a.4.4,0,0,1,.4.464l-.777,5.154a.4.4,0,0,1-.4.343H654.593a.053.053,0,0,0-.052.045l-1.337,8.867a.4.4,0,0,1-.4.344h-6.366a.4.4,0,0,1-.4-.464l3.786-25.107A.4.4,0,0,1,650.225,369.667Z" transform="translate(-615.857 -369.667)"/><g transform="translate(0)"><path class="a" d="M602.711,369.667H595.79a.4.4,0,0,0-.32.158l-7.517,9.8a.057.057,0,0,1-.1-.011l-4.522-9.714a.4.4,0,0,0-.366-.233h-6.984a.4.4,0,0,0-.4.344L571.8,395.118a.4.4,0,0,0,.4.464h6.218a.4.4,0,0,0,.4-.344l2.156-14.3a.053.053,0,0,1,.1-.016l3.841,7.518a.394.394,0,0,0,.351.215h2.467a.393.393,0,0,0,.306-.146l6.212-7.656a.053.053,0,0,1,.093.042L592.2,395.118a.4.4,0,0,0,.4.464h6.329a.4.4,0,0,0,.4-.344l3.786-25.107A.4.4,0,0,0,602.711,369.667Z" transform="translate(-571.795 -369.667)"/></g></g><g transform="translate(458.038 400.824)"><path class="b" d="M465.262,454.2h-1.94l-1.065-2.9h-1.028l-.239,1.566h.818l-.2,1.332h-3.2l.2-1.332h.818l.753-4.931h-.818l.2-1.332H463a3.142,3.142,0,0,1,2.085.578,1.769,1.769,0,0,1,.5,1.724,2.4,2.4,0,0,1-.595,1.291,2.948,2.948,0,0,1-1.17.777l.739,1.893h.911Zm-1.371-5.258a.754.754,0,0,0-.219-.789,2.167,2.167,0,0,0-1.159-.216h-.771l-.325,2.127h.748a2.1,2.1,0,0,0,1.271-.292A1.246,1.246,0,0,0,463.891,448.94Z" transform="translate(-458.403 -446.486)"/><path class="b" d="M512,454.2h-3.026l.2-1.332h.608l-.163-.771h-2.582l-.433.771h.713l-.2,1.332h-2.991l.2-1.332h.689l2.926-4.931h-1.052l.2-1.332H509.7l1.779,6.263h.724Zm-2.628-3.225-.468-2.138h-.07l-1.18,2.138Z" transform="translate(-485.539 -446.486)"/><path class="c" d="M559.059,453.221a3.239,3.239,0,0,1-1.3.666,5.882,5.882,0,0,1-1.681.257,3.268,3.268,0,0,1-2.563-1.046,3.178,3.178,0,0,1-.68-2.74,5.491,5.491,0,0,1,.652-1.823,4.558,4.558,0,0,1,1.467-1.578,4.178,4.178,0,0,1,2.389-.643,4.083,4.083,0,0,1,1.627.287,2.851,2.851,0,0,1,.968.625l-.082,1.765-1.291.117-.01-1a2,2,0,0,0-.69-.3,3.276,3.276,0,0,0-.8-.1,2.3,2.3,0,0,0-1.66.654,3.239,3.239,0,0,0-.87,1.9,2.273,2.273,0,0,0,.339,1.917,1.948,1.948,0,0,0,1.521.6,3.1,3.1,0,0,0,1.5-.315l.336-1.134,1.256.117Z" transform="translate(-514.416 -446.315)"/><path class="b" d="M601.813,454.2h-3.2l.2-1.332h.818l.753-4.931h-.818l.2-1.332h3.2l-.2,1.332h-.818l-.753,4.931h.818Z" transform="translate(-541.617 -446.486)"/><path class="d" d="M645.94,447.935h-.818l-.956,6.263-.878.012-3.341-4.826H639.9l-.532,3.482h1.052l-.2,1.332h-3.33l.2-1.332h.818l.753-4.931h-.947l.2-1.332h2.068l3.145,4.51h.047l.485-3.178h-1.1l.2-1.332h3.377Z" transform="translate(-564.334 -446.486)"/><path class="c" d="M694.693,451.153h-.374l-.439,2.874h-1.216l-.03-.794a3.2,3.2,0,0,1-1,.66,3.291,3.291,0,0,1-1.318.251,2.69,2.69,0,0,1-2.372-1.11,3.677,3.677,0,0,1-.521-2.746,4.91,4.91,0,0,1,1.421-2.8,4.2,4.2,0,0,1,3.1-1.169,4.619,4.619,0,0,1,1.636.269,2.474,2.474,0,0,1,1.029.643l-.041,1.647-1.28.117-.075-.888a2,2,0,0,0-.719-.3,3.639,3.639,0,0,0-.831-.1,2.4,2.4,0,0,0-1.645.631,3.13,3.13,0,0,0-.909,1.94,2.415,2.415,0,0,0,.291,1.881,1.678,1.678,0,0,0,1.407.619,2.016,2.016,0,0,0,1.289-.409,1.747,1.747,0,0,0,.633-1.157l.007-.047h-1.484l.2-1.321H694.9Z" transform="translate(-594.295 -446.315)"/></g><g transform="translate(457.789 378.714)"><path class="e" d="M457.793,408.786a.4.4,0,0,0,.4.464h6.218a.4.4,0,0,0,.4-.343l2.051-13.544-6.625-2.666C460.256,392.607,457.793,408.786,457.793,408.786Z" transform="translate(-457.789 -392.383)"/><path class="f" d="M470.587,391.962a.4.4,0,0,0-.172-.038H464.2a.392.392,0,0,0-.137.025.385.385,0,0,0-.091.052c-.007,0-.016.008-.023.013a.41.41,0,0,0-.138.224l6.625,2.666.381-2.517A.4.4,0,0,0,470.587,391.962Z" transform="translate(-461.361 -391.924)"/><g transform="translate(9.669)"><path class="g" d="M481.579,414.138a.4.4,0,0,0,.4.464h6.466a.4.4,0,0,0,.4-.343l1.482-9.782-6.865-2.762Z" transform="translate(-481.575 -397.734)"/><path class="h" d="M493.8,391.962a.4.4,0,0,0-.172-.038h-6.467a.4.4,0,0,0-.4.344l-.551,3.636,6.865,2.762.951-6.278A.4.4,0,0,0,493.8,391.962Z" transform="translate(-484.329 -391.924)"/></g></g><g transform="translate(460.747 369.667)"><path class="a" d="M495.446,369.667H466.293a.388.388,0,0,0-.383.33l-.84,5.592a.388.388,0,0,0,.384.445H494.6c4.295,0,6.782,2.406,6.157,6.553l-.011.074c-.631,4.184-3.839,6.553-8.133,6.553h-2.494a.2.2,0,0,1-.079-.017l0,0-7.034-2.745-1.309,8.664a.4.4,0,0,0,.4.464h9.294c9.329,0,15.609-5.553,16.737-13.031l.011-.074C509.266,375,504.7,369.667,495.446,369.667Z" transform="translate(-465.065 -369.667)"/><path class="i" d="M516.234,402.406a.242.242,0,0,1-.024-.015.2.2,0,0,1-.037-.028.148.148,0,0,1-.019-.023.186.186,0,0,1-.024-.042c0-.008-.006-.015-.009-.023a.191.191,0,0,1-.005-.078l1.5-9.87a.349.349,0,0,0-.081-.281.359.359,0,0,0-.117-.089.35.35,0,0,0-.149-.033h-6.547a.4.4,0,0,0-.142.026.4.4,0,0,0-.257.318l-1.117,7.4,7.034,2.745Z" transform="translate(-491.262 -382.877)"/></g></g></svg>