<svg xmlns="http://www.w3.org/2000/svg" width="199.116" height="60.386" viewBox="0 0 199.116 60.386"><defs><style>.a{fill:#161615;}.a,.b,.c{fill-rule:evenodd;}.b{fill:#fff;}.c{fill:#0d0d0c;}</style></defs><g transform="translate(-825.504 -743.728)"><path class="a" d="M828.857,793.439h195.317v-32.95H828.857v32.95Z" transform="translate(0.446 2.228)"/><path class="b" d="M987.849,783.877H828.857v1.985h158.3l.695-1.985Z" transform="translate(0.446 5.338)"/><path class="b" d="M883.191,767.234l-5.26,7.94s.4-4.168.4-5.161c.1-.794,0-2.779-1.886-2.779H868.2l-5.359,14.688H869.3l3.87-10.619-.793,10.619h5.755l7.047-10.421-3.87,10.421h6.45l5.459-14.688Z" transform="translate(4.965 3.125)"/><path class="b" d="M913.467,781.66a26.406,26.406,0,0,1-5.458.595c-4.565.2-8.634-1.687-8.634-4.962-.1-5.855,5.757-9.031,10.123-9.825a22.288,22.288,0,0,1,9.329,0l-2.183,5.161c-.595-1.389-2.183-1.389-2.878-1.389a8.19,8.19,0,0,0-3.772.793c-2.183.992-4.068,4.169-.992,5.459,1.687.7,3.87.1,6.153-.2l-1.687,4.368Z" transform="translate(9.822 3.09)"/><path class="b" d="M970.981,781.922h-7.047l5.359-14.688h7.146l-5.458,14.688Z" transform="translate(18.406 3.125)"/><path class="b" d="M895.558,781.922h-7.046l5.359-14.688h7.146l-5.459,14.688Z" transform="translate(8.378 3.125)"/><path class="b" d="M930.484,767.234l-1.886,5.26h-3.672l1.985-5.26h-6.749L914.7,781.922h6.749l1.886-4.963h3.573l-1.787,4.963h6.749l5.458-14.688Z" transform="translate(11.86 3.125)"/><path class="b" d="M958.477,777.059l3.573-9.825H955.1l-5.359,14.688h13.894l1.786-4.863Z" transform="translate(16.519 3.125)"/><path class="b" d="M992.7,767.234l-3.772,10.123c.1-.992.3-5.062.4-7.344a2.532,2.532,0,0,0-.6-2.184,1.989,1.989,0,0,0-1.29-.595H979.2l-5.459,14.688H979.8l3.772-10.421-.4,10.421H993.2l5.458-14.688Z" transform="translate(19.711 3.125)"/><path class="b" d="M941.6,777.952l.6-1.588h7.742l1.29-3.672h-7.741l.6-1.588h8.138l1.39-3.871H938.821l-5.458,14.688h15.085l1.389-3.97Z" transform="translate(14.341 3.125)"/><path class="c" d="M868.406,777.108c.4-.7-.1-1.986-.992-2.977-.794-.992-1.886-1.29-1.985-1.787a3.473,3.473,0,0,0-1.787-4.864,3.15,3.15,0,0,0-1.191-2.779c.4-.893.893-3.374-.992-4.863.794-3.077-2.383-4.863-4.07-4.962a6.172,6.172,0,0,0-3.374-1.092,3.754,3.754,0,0,0-.5-4.863,4.015,4.015,0,0,0-2.779-3.87c-.6-1.389-3.772-1.191-4.07.1a4.417,4.417,0,0,0-2.778,4.565,3.587,3.587,0,0,0,0,4.565,7.412,7.412,0,0,0-3.275.6h-.1a3.6,3.6,0,0,0-2.481-.4,3.274,3.274,0,0,0-1.191-.5,3.009,3.009,0,0,0-1.29-1.191,2.793,2.793,0,0,0-1.587-1.886,3.544,3.544,0,0,0-.4-1.885,2.409,2.409,0,0,1-.2-1.787.788.788,0,0,0-.1-1.191,1.409,1.409,0,0,0-2.283,0c-.993-1.787-2.085-2.183-2.679-1.985-.894-.695-2.184-.2-2.184.6-.595.4-.992.595-.1,2.183-.2,3.274.2,4.268,2.381,6.053a2.811,2.811,0,0,0-.4,3.176,4.479,4.479,0,0,0,1.787,3.97,4.95,4.95,0,0,0,3.97,3.871,4.89,4.89,0,0,0,3.771,2.282,4.362,4.362,0,0,0,.695,1.886,6.216,6.216,0,0,0,.1,3.572,4.673,4.673,0,0,0-.893,4.466,5.539,5.539,0,0,0-.794,5.558,8.023,8.023,0,0,0-.5.992,4.293,4.293,0,0,0-1.985,2.481,5.415,5.415,0,0,0,0,3.077,4.069,4.069,0,0,0,.2,6.053,16.084,16.084,0,0,1-2.878,4.664c-.894,1.191-1.092,1.787,0,3.176a4.879,4.879,0,0,0,3.572,1.985c2.383.1,4.07-.4,4.268-2.183.2-.993-.5-3.076-.5-3.572a5.519,5.519,0,0,1,.6-2.581,15.54,15.54,0,0,0,5.657-8.536,2.831,2.831,0,0,0,.595-1.091,4.45,4.45,0,0,0,.894,2.085,4.378,4.378,0,0,0,1.687,5.259c-2.381,3.474.2,5.161.893,5.856.894.793.993,2.282,2.383,2.778,1.191.4,4.962,0,5.657-1.587.2-.4.4-.893.2-1.191,0-1.192-.695-1.985-1.985-2.779-1.489-.794-1.489-.6-2.183-2.779a4.916,4.916,0,0,0,2.581-4.664c1.587-1.985,1.489-3.672.595-4.764a3.58,3.58,0,0,0,0-2.283,4.671,4.671,0,0,0,1.489-4.863,5.018,5.018,0,0,0,.7-3.97,3.3,3.3,0,0,0,2.976,1.489,4.808,4.808,0,0,0,.2.5,1.508,1.508,0,0,0,.7,2.085,1.562,1.562,0,0,0,.5.793c0,.3.794,1.588,1.687.894a10.542,10.542,0,0,0,1.092-.695c.893.695,2.878.1,2.679-1.191Z" transform="translate(0 0)"/><path class="b" d="M855.236,768.015c2.481-.2,4.863-2.977,2.58-5.162a3.449,3.449,0,0,1-1.488,1.192,4.842,4.842,0,0,1-1.192,2.481c0,.4.1,1.389.1,1.489Z" transform="translate(3.94 2.543)"/><path class="b" d="M859.3,765.569c-.6,1.588-2.184,2.481-4.07,2.779-.3,1.291,1.389,3.275,3.97,2.085a2.624,2.624,0,0,0,.1-4.864Z" transform="translate(3.948 2.904)"/><path class="b" d="M858.218,771.8a.769.769,0,0,0,.1.992,4.663,4.663,0,0,1,.3-.894.246.246,0,0,0-.4-.1Z" transform="translate(4.331 3.723)"/><path class="b" d="M859.709,772.935c-.1-.3,0-.695-.5-.794-.5-.2-.5,1.39-.2,1.29a1.771,1.771,0,0,1,.694-.5Z" transform="translate(4.429 3.776)"/><path class="b" d="M860.332,773.015c-.694.2-1.191.695-.893,1.092.1.2.2.2.595-.1a4.119,4.119,0,0,0,.695-.5,1.119,1.119,0,0,0-.4-.5Z" transform="translate(4.5 3.894)"/><path class="b" d="M861.081,770.381a2.5,2.5,0,0,1-.794-.694,5.623,5.623,0,0,1-2.085,1.191c.1,0,.2.5.3.695.2,0,.4.2.6.4a.922.922,0,0,1,1.091.695,10.61,10.61,0,0,1,1.092.695c.794.994,1.389.894,1.587.7.7-.5-.3-.992-.793-1.687a5.422,5.422,0,0,1-1.092-1.687c0-.1.2,0,.4.2a11.454,11.454,0,0,0,1.687,1.885,4.062,4.062,0,0,0-1.985-2.381Z" transform="translate(4.348 3.452)"/><path class="b" d="M848.195,769.205c9.429-.1,10.619-5.657,9.329-7.841-2.878,2.977-12.5,4.664-17.269.894a5.263,5.263,0,0,1-3.077,1.489c.3,2.778,5.36,5.557,11.017,5.459Z" transform="translate(1.552 2.345)"/><path class="b" d="M841.411,758.058a6.88,6.88,0,0,1-.991,4.169c.893.694,2.679,1.985,6.748,2.083,6.154.1,12.7-2.878,9.032-7.94-1.589,2.085-9.429,3.871-14.789,1.687Z" transform="translate(1.983 1.681)"/><path class="b" d="M834.834,757.941a3.637,3.637,0,0,0,.894-4.466,4.616,4.616,0,0,0-.695-.694c-.3,2.58-3.97,4.565-6.351,2.878a3.754,3.754,0,0,0,6.152,2.283Z" transform="translate(0.423 1.204)"/><path class="b" d="M837.59,760.282c2.184-2.481,0-6.253-.991-6.451a4.613,4.613,0,0,1-6.253,5.161,4.344,4.344,0,0,0,7.244,1.29Z" transform="translate(0.644 1.343)"/><path class="b" d="M834.112,762.518c1.886,1.985,6.947,1.885,7.245-2.779.2-3.176-1.191-4.962-3.374-5.558,2.58,4.864-.5,8.238-3.871,8.337Z" transform="translate(1.145 1.39)"/><path class="b" d="M837.625,765.919c-.893,5.36,6.253,7.047,10.521,6.948,7.245-.3,8.834-3.772,8.436-5.856-4.566,3.573-14.291,3.177-18.957-1.092Z" transform="translate(1.602 2.951)"/><path class="b" d="M841.4,776.8c3.87.794,6.946-.992,6.946-3.573-1.885,0-7.939-.1-10.818-4.068-1.985,2.779.4,6.649,3.871,7.642Z" transform="translate(1.503 3.382)"/><path class="b" d="M846.769,776.366a7.521,7.521,0,0,1-10.023-3.175c-2.581,4.068,1.687,7.74,4.863,7.542,3.87-.2,4.962-2.68,5.161-4.368Z" transform="translate(1.389 3.917)"/><path class="b" d="M836.091,777.921a3.769,3.769,0,0,0,1.885,5.161c3.374,1.29,5.657-.894,5.459-2.481a7.031,7.031,0,0,1-7.344-2.679Z" transform="translate(1.35 4.546)"/><path class="b" d="M833.763,783.79c-1.588,1.29-.5,4.763,1.885,5.557,3.374,1.192,4.863-1.091,5.061-2.282a5.9,5.9,0,0,1-6.946-3.275Z" transform="translate(0.999 5.327)"/><path class="b" d="M838.015,783.491a4.849,4.849,0,0,1-2.977-4.169c-2.581,2.581-.4,6.649,1.985,7.444,4.764,1.687,6.451-2.382,6.053-3.573a5.179,5.179,0,0,1-5.061.3Z" transform="translate(1.113 4.733)"/><path class="b" d="M853.518,794.148l.2.1c-.4.794-3.275,1.489-4.466.992-1.389-.694-1.092-1.488-1.985-2.282-1.985-1.886-1.687-2.679-1.389-3.673a2.763,2.763,0,0,1,.694-1.29,4.409,4.409,0,0,0,3.176.1c0,.1,0,.4.1.5a14.474,14.474,0,0,0-1.688.3l.3.694a10.832,10.832,0,0,1,1.588-.3,3.994,3.994,0,0,0,.2.7,4.239,4.239,0,0,0-1.489.3l.2.595a6,6,0,0,1,1.886-.2c.793.695,3.97,1.489,2.381,3.176-.595.6-2.085.794-3.275.794v.2c.2.3,2.383.4,3.573-.694Z" transform="translate(2.68 5.886)"/><path class="b" d="M852.145,784.5a5.07,5.07,0,0,1-3.374.992A4.959,4.959,0,0,1,844.9,783.7c-.6,2.977,1.29,4.368,3.374,4.466a3.478,3.478,0,0,0,3.871-3.672Z" transform="translate(2.564 5.315)"/><path class="b" d="M848.754,785.377c4.07.1,5.26-3.275,4.466-4.764-2.283,2.779-7.543,2.183-8.634-1.29-1.39,2.481.893,6.055,4.168,6.055Z" transform="translate(2.482 4.733)"/><path class="b" d="M849.231,781.891c1.984,0,4.168-1.39,3.672-3.871a6.266,6.266,0,0,1-7.146-.1,8.754,8.754,0,0,1-.7.992c.3,1.885,2.183,2.977,4.169,2.977Z" transform="translate(2.601 4.546)"/><path class="b" d="M846.633,775.479c-.1.1-.2.2-.3.2a7.707,7.707,0,0,1-.4,2.183c2.779,2.381,8.635.893,8.238-3.97a7.376,7.376,0,0,1-7.543,1.588Z" transform="translate(2.717 4.011)"/><path class="b" d="M847.783,773.066a4.039,4.039,0,0,1-.794,2.383c3.573,1.091,8.039-.794,7.841-5.062a10.943,10.943,0,0,1-7.047,2.679Z" transform="translate(2.857 3.545)"/><path class="b" d="M832.557,756.362c2.679-1.191,2.481-3.97.893-4.664-.4.4-.3,1.289-.3,1.489,0,.4-.7.695-.794.5-.2-.3.4-.595.1-1.289-.2-.6.5-.894.5-1.886a8.991,8.991,0,0,0-.5-1.687,2.406,2.406,0,0,1,.1-2.183c-.3-.3-.695-.6-.993,0a2.336,2.336,0,0,0,0,2.283c0,.1-.5,0-.694.794l-.2.3h-.2a1.8,1.8,0,0,1,.3-1.289,2.681,2.681,0,0,1-.3-1.489c-.4-1.192-1.289-2.283-1.885-2.383.5.794,1.389,2.481,1.489,2.681.2.5-.2.595-.2.595a14.768,14.768,0,0,0-1.985-3.275c-.4-.3-.794-.5-.993-.2.2,0,.4.2.595.4a36.075,36.075,0,0,1,1.886,3.374.438.438,0,0,1-.3.1c-.2,0-.4-.4-.694-1.091a20.083,20.083,0,0,0-1.29-1.886c-.3-.4-.5-.3-.695-.1a2.1,2.1,0,0,1,.4.992c.5-.2,1.092.3,1.191.794a5.348,5.348,0,0,0,.5,2.083,1.462,1.462,0,0,0-.4.2,7.035,7.035,0,0,1-.6-2.183.506.506,0,0,0-.4-.5c-.2,0-.2.1-.2.2-.2,2.778,0,3.473,2.481,5.359a2.285,2.285,0,0,1,.595.893c.2.3.5.794,1.092.694l.2.2a1.172,1.172,0,0,1-1.489,0c-.1-.2-.5-.793-.5-.793-1.787,1.787.6,4.267,3.276,2.977Z" transform="translate(0.12 0.103)"/><path class="b" d="M834.707,788.87a26.336,26.336,0,0,1-3.077,4.765,1.465,1.465,0,0,0,0,2.183,4.13,4.13,0,0,0,3.97,1.289v-.1a3.93,3.93,0,0,1-3.572-1.489l.1-.1a5.051,5.051,0,0,0,5.062.5.664.664,0,0,0,.4-.695c-.1-.794-.5-2.085-.595-2.779a5.965,5.965,0,0,1,.595-2.778c-.794.1-2.381-.1-2.878-.8Z" transform="translate(0.749 6.002)"/><path class="b" d="M854.711,755.688a4.252,4.252,0,0,1,1.488,3.374,2.863,2.863,0,0,0-1.587-4.267,1.006,1.006,0,0,1,.1.893Z" transform="translate(3.87 1.471)"/><path class="b" d="M856.456,763.3c2.481-1.389.893-4.366.5-4.566a5.943,5.943,0,0,1-1.291,2.085,3.908,3.908,0,0,1,.794,2.481Z" transform="translate(4.01 1.996)"/><path class="b" d="M841.33,758.679a13.544,13.544,0,0,0,5.558,1.092c5.161,0,8.734-1.489,9.032-2.977.2-1.291-2.183-2.085-4.666-2.283a1.991,1.991,0,0,1-1.091.6c-.1,0-.3-.1-.1-.2a.834.834,0,0,0,.4-1.29c.3,0,1.192-.4,1.29-1.984a2.852,2.852,0,0,0-1.191-2.481s-.2-.2,0-.2c.2-1.587-.893-2.878-2.779-3.274v-.2a.1.1,0,0,0,.1-.1c-.1-.4-1.489-.6-2.085-.1-.1.1.3.3.4.3.2,0,.3.2.1.2-1.191-.1-3.176.894-3.176,3.573.1,0,.694-.1.894-.1.2.1.1.3,0,.3-1.886.1-2.581,3.374-.1,4.466,0,0,.2.1,0,.2-.3.2-.5.6-.1.894.2,0,.3.2.2.3,0,.2-.3.2-.5,0a5.476,5.476,0,0,0-3.97.1,5.593,5.593,0,0,1,1.786,3.176Z" transform="translate(1.867 0.167)"/><path class="c" d="M829.9,749.8c-.1.1-.4-.2-.694-.4-.3-.1-.7-.1-.7-.2a2.18,2.18,0,0,1,.6-.1c.2,0,.4.1.595.1.1.2.3.5.2.6Z" transform="translate(0.399 0.714)"/><path class="c" d="M835.747,792.14a7.427,7.427,0,0,0-1.985-.3v-.694a20.386,20.386,0,0,1,2.183.4l-.2.595Z" transform="translate(1.098 6.305)"/><path class="c" d="M836.11,791a7.112,7.112,0,0,0-2.085-.4v-.595a5.571,5.571,0,0,1,2.283.3l-.2.695Z" transform="translate(1.133 6.154)"/><path class="c" d="M848.8,750.952a.363.363,0,0,0-.3.1,10.831,10.831,0,0,0-3.275.1c0-.1,0-.3-.2-.3a.348.348,0,0,1-.1.2c-.3.4-.4.595-.3.694s.3-.1.4-.2a2.028,2.028,0,0,1,.893.2c.3.2.893.993,1.489.695.5-.2.893-.993,1.191-.993.2,0,.4.1.4,0,.1,0-.1-.595-.2-.5Zm-1.39,1.191c-.6.2-.893-.5-1.389-.695a7.5,7.5,0,0,1,2.183-.1,6.021,6.021,0,0,0-.794.793Z" transform="translate(2.538 0.947)"/><path class="c" d="M847.806,746.911c-.595.1-.992.893-.992,1.885a2.342,2.342,0,0,0,.695,1.489,1.41,1.41,0,0,0,.6.2,1.63,1.63,0,0,0,.992-1.885,1.828,1.828,0,0,0-.595-1.389.9.9,0,0,0-.7-.3Z" transform="translate(2.834 0.423)"/><path class="b" d="M848.556,749.642h0a2.645,2.645,0,0,0,.2-1.091,2.172,2.172,0,0,0-.5-1.191.594.594,0,0,0-.4-.1c-.5,0-.794.695-.695,1.489v.2h0c.1-.5.3-.893.695-.992.4,0,.695.5.695,1.092v.595Z" transform="translate(2.878 0.47)"/><path class="c" d="M845.366,747c-.6.1-1.092.894-1.092,1.886a2.019,2.019,0,0,0,.6,1.489,1.439,1.439,0,0,0,.695.2c.595,0,1.091-.894,1.091-1.886a1.667,1.667,0,0,0-.595-1.389.9.9,0,0,0-.695-.3Z" transform="translate(2.496 0.435)"/><path class="b" d="M846.124,749.537h0a2.89,2.89,0,0,0,.2-.894,2.189,2.189,0,0,0-.5-1.191.437.437,0,0,0-.5-.1c-.4,0-.794.695-.794,1.489a1.122,1.122,0,0,0,.3.793v0c-.1-.1-.1-.2-.1-.4,0-.6.3-1.092.695-1.092s.694.5.694,1.092v.3Z" transform="translate(2.531 0.477)"/></g></svg>