<svg xmlns="http://www.w3.org/2000/svg" width="151.638" height="33.475" viewBox="0 0 151.638 33.475"><defs><style>.a{fill:#161615;}.a,.b,.c{fill-rule:evenodd;}.c{fill:#fff;}</style></defs><g transform="translate(-819.835 -749.728)"><path class="a" d="M999.324,782.324v-32.5h-32.5v32.5Z" transform="translate(-27.851 -0.018)"/><path class="b" d="M864.3,772.659A12.438,12.438,0,1,1,876.738,785.1,12.439,12.439,0,0,1,864.3,772.659Zm12.422,5.476a5.507,5.507,0,1,0-5.507-5.507,5.507,5.507,0,0,0,5.507,5.507Z" transform="translate(-8.425 -1.988)"/><path class="c" d="M983.926,752.952h5.356v27.07h-5.935V758.887h-4.053v-3.909h0s3.71.719,4.633-2.026Z" transform="translate(-30.214 -0.611)"/><path class="b" d="M819.835,749.884h10.423l5.935,20.266,6.08-20.266h9.989v32.373H845.6v-22.53l-6.659,22.53h-6.08l-6.225-22.674V782.31h-6.8V749.884Z" transform="translate(0 -0.03)"/><path class="b" d="M897.705,749.884h6.659v32.373h-6.659V749.884Z" transform="translate(-14.755 -0.03)"/><path class="b" d="M900.045,772.775c0-6.869,5.208-12.438,11.632-12.438s11.632,5.569,11.632,12.438-5.208,12.438-11.632,12.438-11.632-5.569-11.632-12.437Zm10.825,5.567a5.507,5.507,0,1,0-5.507-5.508,5.507,5.507,0,0,0,5.507,5.508Z" transform="translate(-15.198 -2.01)"/><path class="b" d="M944.467,749.9h6.659v32.373h-6.659V749.9Z" transform="translate(-23.615 -0.033)"/><path class="b" d="M931.849,760.24h6.659V784.3h-6.659V760.24Z" transform="translate(-21.224 -1.992)"/><path class="b" d="M938.556,756.513v-6.785h-6.785v6.785Z" transform="translate(-21.209 0)"/></g></svg>